<svg width="72" height="72" viewBox="0 0 72 72" fill="none" xmlns="http://www.w3.org/2000/svg">
<circle cx="36" cy="36" r="36" fill="#FFDAC2"/>
<mask id="mask0_128_784" style="mask-type:alpha" maskUnits="userSpaceOnUse" x="4" y="4" width="64" height="64">
<rect x="4" y="4" width="64" height="64" fill="#D9D9D9"/>
</mask>
<g mask="url(#mask0_128_784)">
<path d="M17.3333 60C15.8667 60 14.6111 59.4778 13.5667 58.4333C12.5222 57.3889 12 56.1333 12 54.6667V17.3333C12 15.8667 12.5222 14.6111 13.5667 13.5667C14.6111 12.5222 15.8667 12 17.3333 12H41.3333V17.3333H17.3333V54.6667H54.6667V30.6667H60V54.6667C60 56.1333 59.4778 57.3889 58.4333 58.4333C57.3889 59.4778 56.1333 60 54.6667 60H17.3333ZM49.3333 28V22.6667H44V17.3333H49.3333V12H54.6667V17.3333H60V22.6667H54.6667V28H49.3333ZM20 49.3333H52L42 36L34 46.6667L28 38.6667L20 49.3333Z" fill="#BF4D00"/>
</g>
</svg>
