<svg width="146" height="33" viewBox="0 0 146 33" fill="none" xmlns="http://www.w3.org/2000/svg">
<path d="M2 17.0989L6.05479 13.1362M6.05479 13.1362L14.9315 4C17.7133 7.56791 19.273 9.5683 22.0548 13.1362C22.0548 19.7407 24.0596 27.7762 14.9315 27.9963C5.80339 28.2165 6.05479 18.5299 6.05479 13.1362ZM10.7671 17.0989L14.1819 13.1362M34 17.0989L30.3836 13.1362M14.1819 13.1362L22.0548 4L30.3836 13.1362M14.1819 13.1362C13.8108 18.0896 12.8493 27.8549 22.0548 27.9963C31.2603 28.1377 30.3725 18.0896 30.3836 13.1362" stroke="#FF6700" stroke-width="2.5" stroke-linecap="square" stroke-linejoin="bevel"/>
<path d="M37.776 26V8.96H45.312C46.096 8.96 46.816 9.12 47.472 9.44C48.144 9.76 48.72 10.192 49.2 10.736C49.696 11.28 50.072 11.888 50.328 12.56C50.6 13.232 50.736 13.92 50.736 14.624C50.736 15.344 50.608 16.04 50.352 16.712C50.112 17.368 49.76 17.944 49.296 18.44C48.832 18.936 48.288 19.32 47.664 19.592L51.552 26H47.904L44.4 20.288H41.088V26H37.776ZM41.088 17.384H45.24C45.656 17.384 46.024 17.264 46.344 17.024C46.664 16.768 46.92 16.432 47.112 16.016C47.304 15.6 47.4 15.136 47.4 14.624C47.4 14.08 47.288 13.608 47.064 13.208C46.84 12.792 46.552 12.464 46.2 12.224C45.864 11.984 45.496 11.864 45.096 11.864H41.088V17.384ZM57.8511 26.24C56.8271 26.24 55.9071 26.072 55.0911 25.736C54.2751 25.384 53.5791 24.904 53.0031 24.296C52.4431 23.688 52.0111 22.992 51.7071 22.208C51.4031 21.424 51.2511 20.6 51.2511 19.736C51.2511 18.856 51.4031 18.024 51.7071 17.24C52.0111 16.456 52.4431 15.76 53.0031 15.152C53.5791 14.544 54.2751 14.072 55.0911 13.736C55.9071 13.384 56.8271 13.208 57.8511 13.208C58.8751 13.208 59.7871 13.384 60.5871 13.736C61.4031 14.072 62.0991 14.544 62.6751 15.152C63.2511 15.76 63.6831 16.456 63.9711 17.24C64.2751 18.024 64.4271 18.856 64.4271 19.736C64.4271 20.6 64.2751 21.424 63.9711 22.208C63.6831 22.992 63.2511 23.688 62.6751 24.296C62.1151 24.904 61.4271 25.384 60.6111 25.736C59.7951 26.072 58.8751 26.24 57.8511 26.24ZM54.5631 19.736C54.5631 20.472 54.7071 21.128 54.9951 21.704C55.2831 22.264 55.6751 22.704 56.1711 23.024C56.6671 23.344 57.2271 23.504 57.8511 23.504C58.4591 23.504 59.0111 23.344 59.5071 23.024C60.0031 22.688 60.3951 22.24 60.6831 21.68C60.9871 21.104 61.1391 20.448 61.1391 19.712C61.1391 18.992 60.9871 18.344 60.6831 17.768C60.3951 17.192 60.0031 16.744 59.5071 16.424C59.0111 16.104 58.4591 15.944 57.8511 15.944C57.2271 15.944 56.6671 16.112 56.1711 16.448C55.6751 16.768 55.2831 17.216 54.9951 17.792C54.7071 18.352 54.5631 19 54.5631 19.736ZM71.4457 26.24C70.4218 26.24 69.5018 26.072 68.6858 25.736C67.8698 25.384 67.1738 24.904 66.5978 24.296C66.0377 23.688 65.6057 22.992 65.3017 22.208C64.9977 21.424 64.8457 20.6 64.8457 19.736C64.8457 18.856 64.9977 18.024 65.3017 17.24C65.6057 16.456 66.0377 15.76 66.5978 15.152C67.1738 14.544 67.8698 14.072 68.6858 13.736C69.5018 13.384 70.4218 13.208 71.4457 13.208C72.4698 13.208 73.3818 13.384 74.1818 13.736C74.9978 14.072 75.6938 14.544 76.2698 15.152C76.8458 15.76 77.2778 16.456 77.5658 17.24C77.8698 18.024 78.0218 18.856 78.0218 19.736C78.0218 20.6 77.8698 21.424 77.5658 22.208C77.2778 22.992 76.8458 23.688 76.2698 24.296C75.7098 24.904 75.0218 25.384 74.2058 25.736C73.3898 26.072 72.4698 26.24 71.4457 26.24ZM68.1578 19.736C68.1578 20.472 68.3018 21.128 68.5898 21.704C68.8778 22.264 69.2698 22.704 69.7658 23.024C70.2617 23.344 70.8217 23.504 71.4457 23.504C72.0538 23.504 72.6058 23.344 73.1018 23.024C73.5978 22.688 73.9898 22.24 74.2778 21.68C74.5818 21.104 74.7338 20.448 74.7338 19.712C74.7338 18.992 74.5818 18.344 74.2778 17.768C73.9898 17.192 73.5978 16.744 73.1018 16.424C72.6058 16.104 72.0538 15.944 71.4457 15.944C70.8217 15.944 70.2617 16.112 69.7658 16.448C69.2698 16.768 68.8778 17.216 68.5898 17.792C68.3018 18.352 68.1578 19 68.1578 19.736ZM98.7684 26H95.5524V18.944C95.5524 17.952 95.3764 17.224 95.0244 16.76C94.6884 16.28 94.2164 16.04 93.6084 16.04C92.9844 16.04 92.3844 16.288 91.8084 16.784C91.2484 17.264 90.8484 17.896 90.6084 18.68V26H87.3924V18.944C87.3924 17.936 87.2164 17.2 86.8644 16.736C86.5284 16.272 86.0564 16.04 85.4484 16.04C84.8244 16.04 84.2244 16.28 83.6484 16.76C83.0884 17.24 82.6884 17.872 82.4484 18.656V26H79.2324V13.424H82.1364V15.752C82.6164 14.936 83.2564 14.312 84.0564 13.88C84.8564 13.432 85.7764 13.208 86.8164 13.208C87.8564 13.208 88.6644 13.464 89.2404 13.976C89.8324 14.488 90.2084 15.12 90.3684 15.872C90.8804 15.008 91.5284 14.352 92.3124 13.904C93.1124 13.44 94.0084 13.208 95.0004 13.208C95.7844 13.208 96.4164 13.352 96.8964 13.64C97.3924 13.912 97.7764 14.288 98.0484 14.768C98.3204 15.232 98.5044 15.76 98.6004 16.352C98.7124 16.944 98.7684 17.544 98.7684 18.152V26ZM127.591 26V14.816L123.223 23.144H121.375L117.007 14.816V26H113.695V8.96H117.247L122.287 18.656L127.375 8.96H130.903V26H127.591ZM138.809 26.24C137.801 26.24 136.889 26.072 136.073 25.736C135.257 25.384 134.561 24.912 133.985 24.32C133.409 23.712 132.961 23.024 132.641 22.256C132.337 21.472 132.185 20.648 132.185 19.784C132.185 18.584 132.449 17.488 132.977 16.496C133.521 15.504 134.289 14.712 135.281 14.12C136.289 13.512 137.473 13.208 138.833 13.208C140.209 13.208 141.385 13.512 142.361 14.12C143.337 14.712 144.081 15.504 144.593 16.496C145.121 17.472 145.385 18.528 145.385 19.664C145.385 19.856 145.377 20.056 145.361 20.264C145.345 20.456 145.329 20.616 145.313 20.744H135.593C135.657 21.384 135.841 21.944 136.145 22.424C136.465 22.904 136.865 23.272 137.345 23.528C137.841 23.768 138.369 23.888 138.929 23.888C139.569 23.888 140.169 23.736 140.729 23.432C141.305 23.112 141.697 22.696 141.905 22.184L144.665 22.952C144.361 23.592 143.921 24.16 143.345 24.656C142.785 25.152 142.121 25.544 141.353 25.832C140.585 26.104 139.737 26.24 138.809 26.24ZM135.521 18.704H142.097C142.033 18.064 141.849 17.512 141.545 17.048C141.257 16.568 140.873 16.2 140.393 15.944C139.913 15.672 139.377 15.536 138.785 15.536C138.209 15.536 137.681 15.672 137.201 15.944C136.737 16.2 136.353 16.568 136.049 17.048C135.761 17.512 135.585 18.064 135.521 18.704Z" fill="#2E2635"/>
<path d="M112.469 22.4492H110.406V26H106.867V22.4492H99.5545V19.9297L107.066 8.86719H110.406V19.6367H112.469V22.4492ZM106.867 19.6367V16.7305C106.867 16.457 106.871 16.1328 106.879 15.7578C106.894 15.3828 106.91 15.0078 106.926 14.6328C106.941 14.2578 106.957 13.9258 106.972 13.6367C106.996 13.3398 107.012 13.1328 107.019 13.0156H106.926C106.777 13.3359 106.621 13.6484 106.457 13.9531C106.293 14.25 106.101 14.5625 105.883 14.8906L102.742 19.6367H106.867Z" fill="#FF6700"/>
</svg>
