<svg width="85" height="33" viewBox="0 0 85 33" fill="none" xmlns="http://www.w3.org/2000/svg">
<path d="M2 17.0989L6.05479 13.1362M6.05479 13.1362L14.9315 4C17.7133 7.56791 19.273 9.5683 22.0548 13.1362C22.0548 19.7407 24.0596 27.7762 14.9315 27.9963C5.80339 28.2165 6.05479 18.5299 6.05479 13.1362ZM10.7671 17.0989L14.1819 13.1362M34 17.0989L30.3836 13.1362M14.1819 13.1362L22.0548 4L30.3836 13.1362M14.1819 13.1362C13.8108 18.0896 12.8493 27.8549 22.0548 27.9963C31.2603 28.1377 30.3725 18.0896 30.3836 13.1362" stroke="#FF6700" stroke-width="2.5" stroke-linecap="square" stroke-linejoin="bevel"/>
<path d="M37.776 26V8.96H45.312C46.096 8.96 46.816 9.12 47.472 9.44C48.144 9.76 48.72 10.192 49.2 10.736C49.696 11.28 50.072 11.888 50.328 12.56C50.6 13.232 50.736 13.92 50.736 14.624C50.736 15.344 50.608 16.04 50.352 16.712C50.112 17.368 49.76 17.944 49.296 18.44C48.832 18.936 48.288 19.32 47.664 19.592L51.552 26H47.904L44.4 20.288H41.088V26H37.776ZM41.088 17.384H45.24C45.656 17.384 46.024 17.264 46.344 17.024C46.664 16.768 46.92 16.432 47.112 16.016C47.304 15.6 47.4 15.136 47.4 14.624C47.4 14.08 47.288 13.608 47.064 13.208C46.84 12.792 46.552 12.464 46.2 12.224C45.864 11.984 45.496 11.864 45.096 11.864H41.088V17.384ZM79.4473 26V14.816L75.0793 23.144H73.2313L68.8633 14.816V26H65.5513V8.96H69.1033L74.1433 18.656L79.2313 8.96H82.7593V26H79.4473Z" fill="#2E2635"/>
<path d="M64.3252 22.4492H62.2627V26H58.7236V22.4492H51.4111V19.9297L58.9228 8.86719H62.2627V19.6367H64.3252V22.4492ZM58.7236 19.6367V16.7305C58.7236 16.457 58.7275 16.1328 58.7353 15.7578C58.7509 15.3828 58.7666 15.0078 58.7822 14.6328C58.7978 14.2578 58.8134 13.9258 58.8291 13.6367C58.8525 13.3398 58.8681 13.1328 58.8759 13.0156H58.7822C58.6337 13.3359 58.4775 13.6484 58.3134 13.9531C58.1494 14.25 57.958 14.5625 57.7392 14.8906L54.5986 19.6367H58.7236Z" fill="#FF6700"/>
</svg>
