<svg width="32" height="34" viewBox="0 0 32 34" fill="none" xmlns="http://www.w3.org/2000/svg">
<path fill-rule="evenodd" clip-rule="evenodd" d="M16 34C24.8366 34 32 26.8366 32 18C32 9.16344 24.8366 2 16 2V34Z" fill="#FF6700"/>
<path d="M0 18C0 26.8366 7.16344 34 16 34V2C7.16344 2 0 9.16344 0 18Z" fill="#FF6700"/>
<path d="M21.8125 26H10.2109V23.9258L14.6523 19.4258C15.5117 18.5508 16.2188 17.7969 16.7734 17.1641C17.3281 16.5234 17.7383 15.918 18.0039 15.3477C18.2773 14.7773 18.4141 14.1562 18.4141 13.4844C18.4141 12.6562 18.1758 12.0312 17.6992 11.6094C17.2227 11.1797 16.5938 10.9648 15.8125 10.9648C15.0703 10.9648 14.3828 11.1133 13.75 11.4102C13.125 11.6992 12.4766 12.1133 11.8047 12.6523L10.293 10.8359C10.7695 10.4297 11.2773 10.0586 11.8164 9.72266C12.3633 9.38672 12.9727 9.12109 13.6445 8.92578C14.3164 8.72266 15.082 8.62109 15.9414 8.62109C17.0273 8.62109 17.9648 8.81641 18.7539 9.20703C19.543 9.58984 20.1484 10.125 20.5703 10.8125C21 11.5 21.2148 12.3008 21.2148 13.2148C21.2148 14.1367 21.0312 14.9883 20.6641 15.7695C20.2969 16.5508 19.7734 17.3242 19.0938 18.0898C18.4141 18.8477 17.6055 19.6719 16.668 20.5625L13.7031 23.457V23.5859H21.8125V26Z" fill="#FFFCF9"/>
</svg>
