<svg width="32" height="34" viewBox="0 0 32 34" fill="none" xmlns="http://www.w3.org/2000/svg">
<path d="M0 18C0 26.8366 7.16344 34 16 34V2C7.16344 2 0 9.16344 0 18Z" fill="#FF6700"/>
<path d="M16 34C24.8366 34 32 26.8366 32 18C32 9.16344 24.8366 2 16 2V34Z" fill="#4C4652"/>
<path d="M18.3086 26H15.543V14.9727C15.543 14.6055 15.5469 14.2383 15.5547 13.8711C15.5625 13.5039 15.5703 13.1445 15.5781 12.793C15.5938 12.4414 15.6133 12.1055 15.6367 11.7852C15.4727 11.9648 15.2695 12.1602 15.0273 12.3711C14.793 12.582 14.543 12.8008 14.2773 13.0273L12.3086 14.5977L10.9258 12.8516L16.0117 8.86719H18.3086V26Z" fill="#FFFCF9"/>
</svg>
